G04 EAGLE Gerber RS-274X export*
G75*
%MOMM*%
%FSLAX34Y34*%
%LPD*%
%INBottom Copper*%
%IPPOS*%
%AMOC8*
5,1,8,0,0,1.08239X$1,22.5*%
G01*
%ADD10C,1.524000*%
%ADD11C,1.422400*%
%ADD12C,0.756400*%
%ADD13C,0.656400*%
%ADD14C,0.806400*%
%ADD15C,0.906400*%
%ADD16C,0.152400*%

G36*
X334098Y10164D02*
X334098Y10164D01*
X334117Y10162D01*
X334219Y10184D01*
X334321Y10200D01*
X334338Y10210D01*
X334358Y10214D01*
X334447Y10267D01*
X334538Y10316D01*
X334552Y10330D01*
X334569Y10340D01*
X334636Y10419D01*
X334708Y10494D01*
X334716Y10512D01*
X334729Y10527D01*
X334768Y10623D01*
X334811Y10717D01*
X334813Y10737D01*
X334821Y10755D01*
X334839Y10922D01*
X334839Y326578D01*
X334836Y326598D01*
X334838Y326617D01*
X334816Y326719D01*
X334800Y326821D01*
X334790Y326838D01*
X334786Y326858D01*
X334733Y326947D01*
X334684Y327038D01*
X334670Y327052D01*
X334660Y327069D01*
X334581Y327136D01*
X334506Y327208D01*
X334488Y327216D01*
X334473Y327229D01*
X334377Y327268D01*
X334283Y327311D01*
X334263Y327313D01*
X334245Y327321D01*
X334078Y327339D01*
X10922Y327339D01*
X10902Y327336D01*
X10883Y327338D01*
X10781Y327316D01*
X10679Y327300D01*
X10662Y327290D01*
X10642Y327286D01*
X10553Y327233D01*
X10462Y327184D01*
X10448Y327170D01*
X10431Y327160D01*
X10364Y327081D01*
X10292Y327006D01*
X10284Y326988D01*
X10271Y326973D01*
X10232Y326877D01*
X10189Y326783D01*
X10187Y326763D01*
X10179Y326745D01*
X10161Y326578D01*
X10161Y10922D01*
X10164Y10902D01*
X10162Y10883D01*
X10184Y10781D01*
X10200Y10679D01*
X10210Y10662D01*
X10214Y10642D01*
X10267Y10553D01*
X10316Y10462D01*
X10330Y10448D01*
X10340Y10431D01*
X10419Y10364D01*
X10494Y10292D01*
X10512Y10284D01*
X10527Y10271D01*
X10623Y10232D01*
X10717Y10189D01*
X10737Y10187D01*
X10755Y10179D01*
X10922Y10161D01*
X334078Y10161D01*
X334098Y10164D01*
G37*
%LPC*%
G36*
X253670Y158463D02*
X253670Y158463D01*
X250496Y159778D01*
X248066Y162208D01*
X246751Y165382D01*
X246751Y168818D01*
X248066Y171992D01*
X250496Y174422D01*
X253670Y175737D01*
X271330Y175737D01*
X274504Y174422D01*
X277036Y171890D01*
X277094Y171849D01*
X277146Y171799D01*
X277193Y171777D01*
X277235Y171747D01*
X277304Y171726D01*
X277369Y171696D01*
X277421Y171690D01*
X277471Y171675D01*
X277542Y171676D01*
X277613Y171669D01*
X277664Y171680D01*
X277716Y171681D01*
X277784Y171706D01*
X277854Y171721D01*
X277899Y171747D01*
X277947Y171765D01*
X278003Y171810D01*
X278065Y171847D01*
X278099Y171887D01*
X278139Y171919D01*
X278178Y171979D01*
X278225Y172034D01*
X278244Y172082D01*
X278272Y172126D01*
X278290Y172195D01*
X278317Y172262D01*
X278325Y172333D01*
X278333Y172365D01*
X278331Y172388D01*
X278335Y172429D01*
X278335Y175719D01*
X279727Y179080D01*
X282300Y181653D01*
X285661Y183045D01*
X304539Y183045D01*
X307900Y181653D01*
X310473Y179080D01*
X311865Y175719D01*
X311865Y172081D01*
X310473Y168720D01*
X307900Y166147D01*
X304539Y164755D01*
X285661Y164755D01*
X282300Y166147D01*
X279728Y168720D01*
X279713Y168754D01*
X279662Y168837D01*
X279616Y168923D01*
X279598Y168941D01*
X279584Y168963D01*
X279509Y169025D01*
X279438Y169092D01*
X279414Y169103D01*
X279394Y169120D01*
X279303Y169155D01*
X279215Y169196D01*
X279189Y169199D01*
X279165Y169208D01*
X279067Y169212D01*
X278971Y169223D01*
X278945Y169218D01*
X278919Y169219D01*
X278825Y169192D01*
X278730Y169171D01*
X278708Y169157D01*
X278683Y169150D01*
X278603Y169095D01*
X278519Y169045D01*
X278502Y169025D01*
X278481Y169010D01*
X278422Y168932D01*
X278359Y168858D01*
X278349Y168834D01*
X278334Y168813D01*
X278304Y168720D01*
X278267Y168630D01*
X278264Y168597D01*
X278258Y168579D01*
X278258Y168546D01*
X278249Y168463D01*
X278249Y165382D01*
X276934Y162208D01*
X274504Y159778D01*
X271330Y158463D01*
X253670Y158463D01*
G37*
%LPD*%
%LPC*%
G36*
X253670Y183863D02*
X253670Y183863D01*
X250496Y185178D01*
X248066Y187608D01*
X246751Y190782D01*
X246751Y194218D01*
X248066Y197392D01*
X250496Y199822D01*
X253670Y201137D01*
X271330Y201137D01*
X274504Y199822D01*
X277036Y197290D01*
X277094Y197249D01*
X277146Y197199D01*
X277193Y197177D01*
X277235Y197147D01*
X277304Y197126D01*
X277369Y197096D01*
X277421Y197090D01*
X277471Y197075D01*
X277542Y197076D01*
X277613Y197069D01*
X277664Y197080D01*
X277716Y197081D01*
X277784Y197106D01*
X277854Y197121D01*
X277899Y197147D01*
X277947Y197165D01*
X278003Y197210D01*
X278065Y197247D01*
X278099Y197287D01*
X278139Y197319D01*
X278178Y197379D01*
X278225Y197434D01*
X278244Y197482D01*
X278272Y197526D01*
X278290Y197595D01*
X278317Y197662D01*
X278325Y197733D01*
X278333Y197765D01*
X278331Y197788D01*
X278335Y197829D01*
X278335Y201119D01*
X279727Y204480D01*
X282300Y207053D01*
X285661Y208445D01*
X304539Y208445D01*
X307900Y207053D01*
X310473Y204480D01*
X311865Y201119D01*
X311865Y197481D01*
X310473Y194120D01*
X307900Y191547D01*
X304539Y190155D01*
X285661Y190155D01*
X282300Y191547D01*
X279728Y194120D01*
X279713Y194154D01*
X279662Y194237D01*
X279616Y194323D01*
X279598Y194341D01*
X279584Y194363D01*
X279509Y194425D01*
X279438Y194492D01*
X279414Y194503D01*
X279394Y194520D01*
X279303Y194555D01*
X279215Y194596D01*
X279189Y194599D01*
X279165Y194608D01*
X279067Y194612D01*
X278971Y194623D01*
X278945Y194618D01*
X278919Y194619D01*
X278825Y194592D01*
X278730Y194571D01*
X278708Y194557D01*
X278683Y194550D01*
X278603Y194495D01*
X278519Y194445D01*
X278502Y194425D01*
X278481Y194410D01*
X278422Y194332D01*
X278359Y194258D01*
X278349Y194234D01*
X278334Y194213D01*
X278304Y194120D01*
X278267Y194030D01*
X278264Y193997D01*
X278258Y193979D01*
X278258Y193946D01*
X278249Y193863D01*
X278249Y190782D01*
X276934Y187608D01*
X274504Y185178D01*
X271330Y183863D01*
X253670Y183863D01*
G37*
%LPD*%
%LPC*%
G36*
X76170Y83463D02*
X76170Y83463D01*
X72996Y84778D01*
X70566Y87208D01*
X69251Y90382D01*
X69251Y93818D01*
X70566Y96992D01*
X72996Y99422D01*
X76170Y100737D01*
X93830Y100737D01*
X97004Y99422D01*
X99434Y96992D01*
X100153Y95257D01*
X100214Y95157D01*
X100274Y95057D01*
X100279Y95053D01*
X100282Y95048D01*
X100372Y94973D01*
X100461Y94897D01*
X100467Y94895D01*
X100472Y94891D01*
X100580Y94849D01*
X100689Y94805D01*
X100697Y94804D01*
X100702Y94803D01*
X100720Y94802D01*
X100856Y94787D01*
X138447Y94787D01*
X140724Y92510D01*
X140798Y92457D01*
X140868Y92397D01*
X140898Y92385D01*
X140924Y92366D01*
X141011Y92339D01*
X141096Y92305D01*
X141137Y92301D01*
X141159Y92294D01*
X141191Y92295D01*
X141263Y92287D01*
X146924Y92287D01*
X147038Y92305D01*
X147155Y92323D01*
X147161Y92325D01*
X147167Y92326D01*
X147269Y92381D01*
X147374Y92434D01*
X147379Y92439D01*
X147384Y92442D01*
X147464Y92526D01*
X147546Y92610D01*
X147550Y92616D01*
X147553Y92620D01*
X147561Y92637D01*
X147627Y92757D01*
X147789Y93148D01*
X149352Y94711D01*
X151395Y95557D01*
X153605Y95557D01*
X155648Y94711D01*
X157211Y93148D01*
X158057Y91105D01*
X158057Y88895D01*
X157211Y86852D01*
X155648Y85289D01*
X153605Y84443D01*
X151395Y84443D01*
X149352Y85289D01*
X147789Y86852D01*
X147627Y87243D01*
X147566Y87342D01*
X147506Y87443D01*
X147501Y87447D01*
X147498Y87452D01*
X147408Y87526D01*
X147319Y87603D01*
X147313Y87605D01*
X147308Y87609D01*
X147200Y87651D01*
X147091Y87695D01*
X147083Y87696D01*
X147079Y87697D01*
X147060Y87698D01*
X146924Y87713D01*
X139053Y87713D01*
X136776Y89990D01*
X136702Y90043D01*
X136632Y90103D01*
X136602Y90115D01*
X136576Y90134D01*
X136489Y90161D01*
X136404Y90195D01*
X136363Y90199D01*
X136341Y90206D01*
X136309Y90205D01*
X136237Y90213D01*
X101187Y90213D01*
X101073Y90194D01*
X100957Y90177D01*
X100951Y90175D01*
X100945Y90174D01*
X100842Y90119D01*
X100737Y90066D01*
X100733Y90061D01*
X100727Y90058D01*
X100648Y89974D01*
X100565Y89890D01*
X100561Y89884D01*
X100558Y89880D01*
X100550Y89863D01*
X100484Y89743D01*
X99434Y87208D01*
X97004Y84778D01*
X93830Y83463D01*
X76170Y83463D01*
G37*
%LPD*%
%LPC*%
G36*
X40561Y191255D02*
X40561Y191255D01*
X37200Y192647D01*
X34627Y195220D01*
X33235Y198581D01*
X33235Y202219D01*
X34627Y205580D01*
X37200Y208153D01*
X40561Y209545D01*
X59439Y209545D01*
X62800Y208153D01*
X65373Y205580D01*
X66765Y202219D01*
X66765Y198581D01*
X65373Y195220D01*
X62800Y192647D01*
X59439Y191255D01*
X40561Y191255D01*
G37*
%LPD*%
%LPC*%
G36*
X285661Y139355D02*
X285661Y139355D01*
X282300Y140747D01*
X279727Y143320D01*
X278335Y146681D01*
X278335Y150319D01*
X279727Y153680D01*
X282300Y156253D01*
X285661Y157645D01*
X304539Y157645D01*
X307900Y156253D01*
X310473Y153680D01*
X311865Y150319D01*
X311865Y146681D01*
X310473Y143320D01*
X307900Y140747D01*
X304539Y139355D01*
X285661Y139355D01*
G37*
%LPD*%
%LPC*%
G36*
X40561Y140455D02*
X40561Y140455D01*
X37200Y141847D01*
X34627Y144420D01*
X33235Y147781D01*
X33235Y151419D01*
X34627Y154780D01*
X37200Y157353D01*
X40561Y158745D01*
X59439Y158745D01*
X62800Y157353D01*
X65373Y154780D01*
X66765Y151419D01*
X66765Y147781D01*
X65373Y144420D01*
X62800Y141847D01*
X59439Y140455D01*
X40561Y140455D01*
G37*
%LPD*%
%LPC*%
G36*
X40561Y165855D02*
X40561Y165855D01*
X37200Y167247D01*
X34627Y169820D01*
X33235Y173181D01*
X33235Y176819D01*
X34627Y180180D01*
X37200Y182753D01*
X40561Y184145D01*
X59439Y184145D01*
X62800Y182753D01*
X65373Y180180D01*
X66765Y176819D01*
X66765Y173181D01*
X65373Y169820D01*
X62800Y167247D01*
X59439Y165855D01*
X40561Y165855D01*
G37*
%LPD*%
%LPC*%
G36*
X285661Y266355D02*
X285661Y266355D01*
X282300Y267747D01*
X279727Y270320D01*
X278335Y273681D01*
X278335Y277319D01*
X279727Y280680D01*
X282300Y283253D01*
X285661Y284645D01*
X304539Y284645D01*
X307900Y283253D01*
X310473Y280680D01*
X311865Y277319D01*
X311865Y273681D01*
X310473Y270320D01*
X307900Y267747D01*
X304539Y266355D01*
X285661Y266355D01*
G37*
%LPD*%
%LPC*%
G36*
X285661Y63155D02*
X285661Y63155D01*
X282300Y64547D01*
X279727Y67120D01*
X278335Y70481D01*
X278335Y74119D01*
X279727Y77480D01*
X282300Y80053D01*
X285661Y81445D01*
X304539Y81445D01*
X307900Y80053D01*
X310473Y77480D01*
X311865Y74119D01*
X311865Y70481D01*
X310473Y67120D01*
X307900Y64547D01*
X304539Y63155D01*
X285661Y63155D01*
G37*
%LPD*%
%LPC*%
G36*
X40561Y64255D02*
X40561Y64255D01*
X37200Y65647D01*
X34627Y68220D01*
X33235Y71581D01*
X33235Y75219D01*
X34627Y78580D01*
X37200Y81153D01*
X40561Y82545D01*
X59439Y82545D01*
X62800Y81153D01*
X65373Y78580D01*
X66765Y75219D01*
X66765Y71581D01*
X65373Y68220D01*
X62800Y65647D01*
X59439Y64255D01*
X40561Y64255D01*
G37*
%LPD*%
%LPC*%
G36*
X40561Y267455D02*
X40561Y267455D01*
X37200Y268847D01*
X34627Y271420D01*
X33235Y274781D01*
X33235Y278419D01*
X34627Y281780D01*
X37200Y284353D01*
X40561Y285745D01*
X59439Y285745D01*
X62800Y284353D01*
X65373Y281780D01*
X66765Y278419D01*
X66765Y274781D01*
X65373Y271420D01*
X62800Y268847D01*
X59439Y267455D01*
X40561Y267455D01*
G37*
%LPD*%
%LPC*%
G36*
X285661Y88555D02*
X285661Y88555D01*
X282300Y89947D01*
X279727Y92520D01*
X278335Y95881D01*
X278335Y99519D01*
X279727Y102880D01*
X282300Y105453D01*
X285661Y106845D01*
X304539Y106845D01*
X307900Y105453D01*
X310473Y102880D01*
X311865Y99519D01*
X311865Y95881D01*
X310473Y92520D01*
X307900Y89947D01*
X304539Y88555D01*
X285661Y88555D01*
G37*
%LPD*%
%LPC*%
G36*
X40561Y242055D02*
X40561Y242055D01*
X37200Y243447D01*
X34627Y246020D01*
X33235Y249381D01*
X33235Y253019D01*
X34627Y256380D01*
X37200Y258953D01*
X40561Y260345D01*
X59439Y260345D01*
X62800Y258953D01*
X65373Y256380D01*
X66765Y253019D01*
X66765Y249381D01*
X65373Y246020D01*
X62800Y243447D01*
X59439Y242055D01*
X40561Y242055D01*
G37*
%LPD*%
%LPC*%
G36*
X285661Y240955D02*
X285661Y240955D01*
X282300Y242347D01*
X279727Y244920D01*
X278335Y248281D01*
X278335Y251919D01*
X279727Y255280D01*
X282300Y257853D01*
X285661Y259245D01*
X304539Y259245D01*
X307900Y257853D01*
X310473Y255280D01*
X311865Y251919D01*
X311865Y248281D01*
X310473Y244920D01*
X307900Y242347D01*
X304539Y240955D01*
X285661Y240955D01*
G37*
%LPD*%
%LPC*%
G36*
X40561Y89655D02*
X40561Y89655D01*
X37200Y91047D01*
X34627Y93620D01*
X33235Y96981D01*
X33235Y100619D01*
X34627Y103980D01*
X37200Y106553D01*
X40561Y107945D01*
X59439Y107945D01*
X62800Y106553D01*
X65373Y103980D01*
X66765Y100619D01*
X66765Y96981D01*
X65373Y93620D01*
X62800Y91047D01*
X59439Y89655D01*
X40561Y89655D01*
G37*
%LPD*%
%LPC*%
G36*
X285661Y113955D02*
X285661Y113955D01*
X282300Y115347D01*
X279727Y117920D01*
X278335Y121281D01*
X278335Y124919D01*
X279727Y128280D01*
X282300Y130853D01*
X285661Y132245D01*
X304539Y132245D01*
X307900Y130853D01*
X310473Y128280D01*
X311865Y124919D01*
X311865Y121281D01*
X310473Y117920D01*
X307900Y115347D01*
X304539Y113955D01*
X285661Y113955D01*
G37*
%LPD*%
%LPC*%
G36*
X40561Y115055D02*
X40561Y115055D01*
X37200Y116447D01*
X34627Y119020D01*
X33235Y122381D01*
X33235Y126019D01*
X34627Y129380D01*
X37200Y131953D01*
X40561Y133345D01*
X59439Y133345D01*
X62800Y131953D01*
X65373Y129380D01*
X66765Y126019D01*
X66765Y122381D01*
X65373Y119020D01*
X62800Y116447D01*
X59439Y115055D01*
X40561Y115055D01*
G37*
%LPD*%
%LPC*%
G36*
X264023Y208247D02*
X264023Y208247D01*
X264023Y217138D01*
X264020Y217158D01*
X264022Y217177D01*
X264000Y217279D01*
X263983Y217381D01*
X263974Y217398D01*
X263970Y217418D01*
X263917Y217507D01*
X263868Y217598D01*
X263854Y217612D01*
X263844Y217629D01*
X263765Y217696D01*
X263690Y217767D01*
X263672Y217776D01*
X263657Y217789D01*
X263561Y217827D01*
X263467Y217871D01*
X263447Y217873D01*
X263429Y217881D01*
X263262Y217899D01*
X262499Y217899D01*
X262499Y217901D01*
X263262Y217901D01*
X263282Y217904D01*
X263301Y217902D01*
X263403Y217924D01*
X263505Y217941D01*
X263522Y217950D01*
X263542Y217954D01*
X263631Y218007D01*
X263722Y218056D01*
X263736Y218070D01*
X263753Y218080D01*
X263820Y218159D01*
X263891Y218234D01*
X263900Y218252D01*
X263913Y218267D01*
X263952Y218363D01*
X263995Y218457D01*
X263997Y218477D01*
X264005Y218495D01*
X264023Y218662D01*
X264023Y227553D01*
X270372Y227553D01*
X271872Y227315D01*
X273317Y226846D01*
X274671Y226156D01*
X275900Y225263D01*
X276036Y225127D01*
X276046Y225120D01*
X276053Y225110D01*
X276146Y225048D01*
X276236Y224983D01*
X276248Y224980D01*
X276258Y224973D01*
X276364Y224944D01*
X276471Y224911D01*
X276483Y224911D01*
X276495Y224908D01*
X276605Y224914D01*
X276717Y224917D01*
X276728Y224921D01*
X276740Y224922D01*
X276843Y224963D01*
X276948Y225001D01*
X276958Y225009D01*
X276969Y225013D01*
X277053Y225085D01*
X277140Y225155D01*
X277147Y225165D01*
X277156Y225173D01*
X277213Y225268D01*
X277273Y225362D01*
X277276Y225374D01*
X277282Y225384D01*
X277327Y225546D01*
X277569Y227079D01*
X278064Y228600D01*
X278790Y230025D01*
X279730Y231319D01*
X280861Y232450D01*
X282155Y233390D01*
X283580Y234116D01*
X285101Y234611D01*
X286680Y234861D01*
X293577Y234861D01*
X293577Y225462D01*
X293580Y225442D01*
X293578Y225423D01*
X293600Y225321D01*
X293617Y225219D01*
X293626Y225202D01*
X293630Y225182D01*
X293683Y225093D01*
X293732Y225002D01*
X293746Y224988D01*
X293756Y224971D01*
X293835Y224904D01*
X293910Y224833D01*
X293928Y224824D01*
X293943Y224811D01*
X294039Y224773D01*
X294133Y224729D01*
X294153Y224727D01*
X294171Y224719D01*
X294338Y224701D01*
X295101Y224701D01*
X295101Y224699D01*
X294338Y224699D01*
X294318Y224696D01*
X294299Y224698D01*
X294197Y224676D01*
X294095Y224659D01*
X294078Y224650D01*
X294058Y224646D01*
X293969Y224593D01*
X293878Y224544D01*
X293864Y224530D01*
X293847Y224520D01*
X293780Y224441D01*
X293709Y224366D01*
X293700Y224348D01*
X293687Y224333D01*
X293648Y224237D01*
X293605Y224143D01*
X293603Y224123D01*
X293595Y224105D01*
X293577Y223938D01*
X293577Y214539D01*
X286680Y214539D01*
X285101Y214789D01*
X283580Y215284D01*
X282155Y216010D01*
X280861Y216950D01*
X280513Y217297D01*
X280504Y217304D01*
X280496Y217314D01*
X280404Y217376D01*
X280314Y217441D01*
X280302Y217444D01*
X280292Y217451D01*
X280185Y217480D01*
X280079Y217513D01*
X280066Y217513D01*
X280055Y217516D01*
X279944Y217510D01*
X279833Y217507D01*
X279821Y217503D01*
X279809Y217502D01*
X279707Y217461D01*
X279602Y217422D01*
X279592Y217415D01*
X279581Y217410D01*
X279497Y217338D01*
X279410Y217269D01*
X279403Y217259D01*
X279394Y217251D01*
X279337Y217156D01*
X279277Y217062D01*
X279274Y217050D01*
X279268Y217040D01*
X279223Y216878D01*
X279027Y215640D01*
X278558Y214195D01*
X277868Y212841D01*
X276975Y211612D01*
X275900Y210537D01*
X274671Y209644D01*
X273317Y208954D01*
X271872Y208485D01*
X270372Y208247D01*
X264023Y208247D01*
G37*
%LPD*%
%LPC*%
G36*
X76170Y134263D02*
X76170Y134263D01*
X72996Y135578D01*
X70566Y138008D01*
X69251Y141182D01*
X69251Y144618D01*
X70566Y147792D01*
X72996Y150222D01*
X76170Y151537D01*
X93830Y151537D01*
X97004Y150222D01*
X99434Y147792D01*
X100749Y144618D01*
X100749Y141182D01*
X99434Y138008D01*
X97004Y135578D01*
X93830Y134263D01*
X76170Y134263D01*
G37*
%LPD*%
%LPC*%
G36*
X76170Y108863D02*
X76170Y108863D01*
X72996Y110178D01*
X70566Y112608D01*
X69251Y115782D01*
X69251Y119218D01*
X70566Y122392D01*
X72996Y124822D01*
X76170Y126137D01*
X93830Y126137D01*
X97004Y124822D01*
X99434Y122392D01*
X100749Y119218D01*
X100749Y115782D01*
X99434Y112608D01*
X97004Y110178D01*
X93830Y108863D01*
X76170Y108863D01*
G37*
%LPD*%
%LPC*%
G36*
X51523Y303523D02*
X51523Y303523D01*
X51523Y312161D01*
X58420Y312161D01*
X59999Y311911D01*
X61520Y311416D01*
X62945Y310690D01*
X64239Y309750D01*
X65370Y308619D01*
X66310Y307325D01*
X67036Y305900D01*
X67531Y304379D01*
X67666Y303523D01*
X51523Y303523D01*
G37*
%LPD*%
%LPC*%
G36*
X296623Y302423D02*
X296623Y302423D01*
X296623Y311061D01*
X303520Y311061D01*
X305099Y310811D01*
X306620Y310316D01*
X308045Y309590D01*
X309339Y308650D01*
X310470Y307519D01*
X311410Y306225D01*
X312136Y304800D01*
X312631Y303279D01*
X312766Y302423D01*
X296623Y302423D01*
G37*
%LPD*%
%LPC*%
G36*
X296623Y226223D02*
X296623Y226223D01*
X296623Y234861D01*
X303520Y234861D01*
X305099Y234611D01*
X306620Y234116D01*
X308045Y233390D01*
X309339Y232450D01*
X310470Y231319D01*
X311410Y230025D01*
X312136Y228600D01*
X312631Y227079D01*
X312766Y226223D01*
X296623Y226223D01*
G37*
%LPD*%
%LPC*%
G36*
X51523Y227323D02*
X51523Y227323D01*
X51523Y235961D01*
X58420Y235961D01*
X59999Y235711D01*
X61520Y235216D01*
X62945Y234490D01*
X64239Y233550D01*
X65370Y232419D01*
X66310Y231125D01*
X67036Y229700D01*
X67531Y228179D01*
X67666Y227323D01*
X51523Y227323D01*
G37*
%LPD*%
%LPC*%
G36*
X51523Y49523D02*
X51523Y49523D01*
X51523Y58161D01*
X58420Y58161D01*
X59999Y57911D01*
X61520Y57416D01*
X62945Y56690D01*
X64239Y55750D01*
X65370Y54619D01*
X66310Y53325D01*
X67036Y51900D01*
X67531Y50379D01*
X67666Y49523D01*
X51523Y49523D01*
G37*
%LPD*%
%LPC*%
G36*
X296623Y48423D02*
X296623Y48423D01*
X296623Y57061D01*
X303520Y57061D01*
X305099Y56811D01*
X306620Y56316D01*
X308045Y55590D01*
X309339Y54650D01*
X310470Y53519D01*
X311410Y52225D01*
X312136Y50800D01*
X312631Y49279D01*
X312766Y48423D01*
X296623Y48423D01*
G37*
%LPD*%
%LPC*%
G36*
X32334Y303523D02*
X32334Y303523D01*
X32469Y304379D01*
X32964Y305900D01*
X33690Y307325D01*
X34630Y308619D01*
X35761Y309750D01*
X37055Y310690D01*
X38480Y311416D01*
X40001Y311911D01*
X41580Y312161D01*
X48477Y312161D01*
X48477Y303523D01*
X32334Y303523D01*
G37*
%LPD*%
%LPC*%
G36*
X277434Y302423D02*
X277434Y302423D01*
X277569Y303279D01*
X278064Y304800D01*
X278790Y306225D01*
X279730Y307519D01*
X280861Y308650D01*
X282155Y309590D01*
X283580Y310316D01*
X285101Y310811D01*
X286680Y311061D01*
X293577Y311061D01*
X293577Y302423D01*
X277434Y302423D01*
G37*
%LPD*%
%LPC*%
G36*
X32334Y227323D02*
X32334Y227323D01*
X32469Y228179D01*
X32964Y229700D01*
X33690Y231125D01*
X34630Y232419D01*
X35761Y233550D01*
X37055Y234490D01*
X38480Y235216D01*
X40001Y235711D01*
X41580Y235961D01*
X48477Y235961D01*
X48477Y227323D01*
X32334Y227323D01*
G37*
%LPD*%
%LPC*%
G36*
X32334Y49523D02*
X32334Y49523D01*
X32469Y50379D01*
X32964Y51900D01*
X33690Y53325D01*
X34630Y54619D01*
X35761Y55750D01*
X37055Y56690D01*
X38480Y57416D01*
X40001Y57911D01*
X41580Y58161D01*
X48477Y58161D01*
X48477Y49523D01*
X32334Y49523D01*
G37*
%LPD*%
%LPC*%
G36*
X277434Y48423D02*
X277434Y48423D01*
X277569Y49279D01*
X278064Y50800D01*
X278790Y52225D01*
X279730Y53519D01*
X280861Y54650D01*
X282155Y55590D01*
X283580Y56316D01*
X285101Y56811D01*
X286680Y57061D01*
X293577Y57061D01*
X293577Y48423D01*
X277434Y48423D01*
G37*
%LPD*%
%LPC*%
G36*
X51523Y291839D02*
X51523Y291839D01*
X51523Y300477D01*
X67666Y300477D01*
X67531Y299621D01*
X67036Y298100D01*
X66310Y296675D01*
X65370Y295381D01*
X64239Y294250D01*
X62945Y293310D01*
X61520Y292584D01*
X59999Y292089D01*
X58420Y291839D01*
X51523Y291839D01*
G37*
%LPD*%
%LPC*%
G36*
X296623Y214539D02*
X296623Y214539D01*
X296623Y223177D01*
X312766Y223177D01*
X312631Y222321D01*
X312136Y220800D01*
X311410Y219375D01*
X310470Y218081D01*
X309339Y216950D01*
X308045Y216010D01*
X306620Y215284D01*
X305099Y214789D01*
X303520Y214539D01*
X296623Y214539D01*
G37*
%LPD*%
%LPC*%
G36*
X51523Y215639D02*
X51523Y215639D01*
X51523Y224277D01*
X67666Y224277D01*
X67531Y223421D01*
X67036Y221900D01*
X66310Y220475D01*
X65370Y219181D01*
X64239Y218050D01*
X62945Y217110D01*
X61520Y216384D01*
X59999Y215889D01*
X58420Y215639D01*
X51523Y215639D01*
G37*
%LPD*%
%LPC*%
G36*
X296623Y290739D02*
X296623Y290739D01*
X296623Y299377D01*
X312766Y299377D01*
X312631Y298521D01*
X312136Y297000D01*
X311410Y295575D01*
X310470Y294281D01*
X309339Y293150D01*
X308045Y292210D01*
X306620Y291484D01*
X305099Y290989D01*
X303520Y290739D01*
X296623Y290739D01*
G37*
%LPD*%
%LPC*%
G36*
X51523Y37839D02*
X51523Y37839D01*
X51523Y46477D01*
X67666Y46477D01*
X67531Y45621D01*
X67036Y44100D01*
X66310Y42675D01*
X65370Y41381D01*
X64239Y40250D01*
X62945Y39310D01*
X61520Y38584D01*
X59999Y38089D01*
X58420Y37839D01*
X51523Y37839D01*
G37*
%LPD*%
%LPC*%
G36*
X296623Y36739D02*
X296623Y36739D01*
X296623Y45377D01*
X312766Y45377D01*
X312631Y44521D01*
X312136Y43000D01*
X311410Y41575D01*
X310470Y40281D01*
X309339Y39150D01*
X308045Y38210D01*
X306620Y37484D01*
X305099Y36989D01*
X303520Y36739D01*
X296623Y36739D01*
G37*
%LPD*%
%LPC*%
G36*
X41580Y215639D02*
X41580Y215639D01*
X40001Y215889D01*
X38480Y216384D01*
X37055Y217110D01*
X35761Y218050D01*
X34630Y219181D01*
X33690Y220475D01*
X32964Y221900D01*
X32469Y223421D01*
X32334Y224277D01*
X48477Y224277D01*
X48477Y215639D01*
X41580Y215639D01*
G37*
%LPD*%
%LPC*%
G36*
X286680Y290739D02*
X286680Y290739D01*
X285101Y290989D01*
X283580Y291484D01*
X282155Y292210D01*
X280861Y293150D01*
X279730Y294281D01*
X278790Y295575D01*
X278064Y297000D01*
X277569Y298521D01*
X277434Y299377D01*
X293577Y299377D01*
X293577Y290739D01*
X286680Y290739D01*
G37*
%LPD*%
%LPC*%
G36*
X41580Y291839D02*
X41580Y291839D01*
X40001Y292089D01*
X38480Y292584D01*
X37055Y293310D01*
X35761Y294250D01*
X34630Y295381D01*
X33690Y296675D01*
X32964Y298100D01*
X32469Y299621D01*
X32334Y300477D01*
X48477Y300477D01*
X48477Y291839D01*
X41580Y291839D01*
G37*
%LPD*%
%LPC*%
G36*
X41580Y37839D02*
X41580Y37839D01*
X40001Y38089D01*
X38480Y38584D01*
X37055Y39310D01*
X35761Y40250D01*
X34630Y41381D01*
X33690Y42675D01*
X32964Y44100D01*
X32469Y45621D01*
X32334Y46477D01*
X48477Y46477D01*
X48477Y37839D01*
X41580Y37839D01*
G37*
%LPD*%
%LPC*%
G36*
X286680Y36739D02*
X286680Y36739D01*
X285101Y36989D01*
X283580Y37484D01*
X282155Y38210D01*
X280861Y39150D01*
X279730Y40281D01*
X278790Y41575D01*
X278064Y43000D01*
X277569Y44521D01*
X277434Y45377D01*
X293577Y45377D01*
X293577Y36739D01*
X286680Y36739D01*
G37*
%LPD*%
%LPC*%
G36*
X245856Y219423D02*
X245856Y219423D01*
X245973Y220160D01*
X246442Y221605D01*
X247132Y222959D01*
X248025Y224188D01*
X249100Y225263D01*
X250329Y226156D01*
X251683Y226846D01*
X253128Y227315D01*
X254628Y227553D01*
X260977Y227553D01*
X260977Y219423D01*
X245856Y219423D01*
G37*
%LPD*%
%LPC*%
G36*
X254628Y208247D02*
X254628Y208247D01*
X253128Y208485D01*
X251683Y208954D01*
X250329Y209644D01*
X249100Y210537D01*
X248025Y211612D01*
X247132Y212841D01*
X246442Y214195D01*
X245973Y215640D01*
X245856Y216377D01*
X260977Y216377D01*
X260977Y208247D01*
X254628Y208247D01*
G37*
%LPD*%
%LPC*%
G36*
X49999Y301999D02*
X49999Y301999D01*
X49999Y302001D01*
X50001Y302001D01*
X50001Y301999D01*
X49999Y301999D01*
G37*
%LPD*%
%LPC*%
G36*
X49999Y225799D02*
X49999Y225799D01*
X49999Y225801D01*
X50001Y225801D01*
X50001Y225799D01*
X49999Y225799D01*
G37*
%LPD*%
%LPC*%
G36*
X295099Y300899D02*
X295099Y300899D01*
X295099Y300901D01*
X295101Y300901D01*
X295101Y300899D01*
X295099Y300899D01*
G37*
%LPD*%
%LPC*%
G36*
X49999Y47999D02*
X49999Y47999D01*
X49999Y48001D01*
X50001Y48001D01*
X50001Y47999D01*
X49999Y47999D01*
G37*
%LPD*%
%LPC*%
G36*
X295099Y46899D02*
X295099Y46899D01*
X295099Y46901D01*
X295101Y46901D01*
X295101Y46899D01*
X295099Y46899D01*
G37*
%LPD*%
D10*
X302720Y300900D02*
X287480Y300900D01*
X287480Y275500D02*
X302720Y275500D01*
X302720Y250100D02*
X287480Y250100D01*
X287480Y224700D02*
X302720Y224700D01*
X302720Y199300D02*
X287480Y199300D01*
X287480Y173900D02*
X302720Y173900D01*
X302720Y148500D02*
X287480Y148500D01*
X287480Y123100D02*
X302720Y123100D01*
X302720Y97700D02*
X287480Y97700D01*
X287480Y72300D02*
X302720Y72300D01*
X302720Y46900D02*
X287480Y46900D01*
D11*
X269612Y217900D02*
X255388Y217900D01*
X255388Y192500D02*
X269612Y192500D01*
X269612Y167100D02*
X255388Y167100D01*
X92112Y92100D02*
X77888Y92100D01*
X77888Y117500D02*
X92112Y117500D01*
X92112Y142900D02*
X77888Y142900D01*
D10*
X57620Y302000D02*
X42380Y302000D01*
X42380Y276600D02*
X57620Y276600D01*
X57620Y251200D02*
X42380Y251200D01*
X42380Y225800D02*
X57620Y225800D01*
X57620Y200400D02*
X42380Y200400D01*
X42380Y175000D02*
X57620Y175000D01*
X57620Y149600D02*
X42380Y149600D01*
X42380Y124200D02*
X57620Y124200D01*
X57620Y98800D02*
X42380Y98800D01*
X42380Y73400D02*
X57620Y73400D01*
X57620Y48000D02*
X42380Y48000D01*
D12*
X125000Y85000D03*
X125000Y200000D03*
X232500Y107500D03*
D13*
X162500Y145000D03*
X162500Y130000D03*
X195000Y145000D03*
X192500Y177500D03*
D14*
X207500Y275000D03*
D12*
X15000Y72500D03*
X320000Y115000D03*
D15*
X92500Y70000D03*
X202500Y50000D03*
X220000Y87500D03*
D14*
X152500Y90000D03*
D16*
X140000Y90000D01*
X137500Y92500D01*
X85400Y92500D02*
X85000Y92100D01*
X85400Y92500D02*
X137500Y92500D01*
M02*
