M48
;GenerationSoftware,Autodesk,EAGLE,9.6.2*%
;CreationDate,2022-08-31T06:56:58Z*%
FMAT,2
ICI,OFF
METRIC,TZ,000.000
T6C0.250
T5C0.350
T4C0.400
T3C0.500
T2C0.914
T1C1.016
%
G90
M71
T1
X29510Y9770
X29510Y7230
X29510Y4690
X5000Y30200
X5000Y27660
X29510Y12310
X5000Y25120
X5000Y22580
X5000Y20040
X5000Y14960
X5000Y12420
X5000Y9880
X5000Y7340
X5000Y4800
X29510Y30090
X29510Y27550
X29510Y25010
X29510Y22470
X29510Y19930
X29510Y17390
X29510Y14850
X5000Y17500
T2
X8500Y11750
X8500Y14290
X26250Y21790
X26250Y19250
X26250Y16710
X8500Y9210
T3
X9250Y7000
X20250Y5000
X22000Y8750
T4
X20750Y27500
X15250Y9000
T5
X12500Y20000
X23250Y10750
X1500Y7250
X32000Y11500
X12500Y8500
T6
X16250Y14500
X16250Y13000
X19250Y17750
X19500Y14500
M30